<svg width="20" height="16" fill="none" xmlns="http://www.w3.org/2000/svg"><path d="M17.633 3.997c.013.175.013.349.013.523 0 5.325-4.053 11.461-11.46 11.461-2.282 0-4.402-.661-6.186-1.809.324.037.636.05.973.05a8.07 8.07 0 0 0 5.001-1.721 4.036 4.036 0 0 1-3.767-2.793c.249.037.499.062.761.062.361 0 .724-.05 1.061-.137A4.027 4.027 0 0 1 .799 5.68v-.05c.537.299 1.16.486 1.82.511A4.022 4.022 0 0 1 .823 2.787c0-.748.199-1.434.548-2.032A11.457 11.457 0 0 0 9.677 4.97c-.062-.3-.1-.611-.1-.923A4.026 4.026 0 0 1 13.605.019c1.16 0 2.207.486 2.943 1.272a7.957 7.957 0 0 0 2.556-.973c-.3.93-.93 1.72-1.771 2.22a8.073 8.073 0 0 0 2.319-.624 8.646 8.646 0 0 1-2.019 2.083Z" fill="#95E1D3"/></svg>