<svg width="30" height="29" fill="none" xmlns="http://www.w3.org/2000/svg"><path d="M14.786 14.225a3.868 3.868 0 1 1 0-7.737 3.868 3.868 0 0 1 0 7.737Zm0-6.551a2.682 2.682 0 1 0 0 5.364 2.682 2.682 0 0 0 0-5.364Z" fill="#F38281"/><path d="M21.48 12.278h-.095a.605.605 0 0 1-.451-.676v-.19a2.655 2.655 0 0 0 0-.25 1.932 1.932 0 0 0 0-.367v-.463a6.017 6.017 0 1 0-12.034 0v.38c.033.157.09.31.166.45v.487a.6.6 0 1 1-1.187.178V11.4a2.74 2.74 0 0 1 0-.581v-.368a7.204 7.204 0 1 1 14.408 0v.439c-.002.195-.022.39-.06.581l-.107.309a.581.581 0 0 1-.64.498Z" fill="#F38281"/><path d="M15 26.294a.558.558 0 0 1-.415-.178c-6.29-6.29-6.706-15.357-6.789-15.737a.593.593 0 1 1 1.187-.047c0 .083.487 8.995 6.432 14.953a.57.57 0 0 1 0 .83.56.56 0 0 1-.415.179Z" fill="#F38281"/><path d="M15 26.294a.558.558 0 0 1-.415-.178.57.57 0 0 1 0-.83c5.933-5.934 6.42-14.87 6.432-14.954a.548.548 0 0 1 .617-.57.605.605 0 0 1 .57.618c0 .38-.499 9.494-6.789 15.736a.558.558 0 0 1-.415.178Z" fill="#F38281"/></svg>