<svg width="42" height="42" fill="none" xmlns="http://www.w3.org/2000/svg"><path d="M21 27.72a9.643 9.643 0 0 1-9.643-9.642V6.388a7.386 7.386 0 0 1 0-1.085.858.858 0 0 1 .963-.753.875.875 0 0 1 .77.963 7.135 7.135 0 0 0 0 .875v11.69a7.893 7.893 0 0 0 15.75 0V6.388a7.096 7.096 0 0 0 0-.875.882.882 0 0 1 1.75-.21c.027.36.027.723 0 1.085v11.69A9.642 9.642 0 0 1 21 27.72Z" fill="#fff"/><path d="M30.712 17.01a.875.875 0 0 1-.454-.14l-.945-.56a.88.88 0 0 1 .91-1.505l.717.438c5.407-.175 6.44-6.58 6.632-8.96H4.41c.192 2.397 1.172 8.75 6.65 8.96l.717-.438a.88.88 0 0 1 .91 1.505l-.944.56a.875.875 0 0 1-.456.14c-6.842 0-8.662-7.595-8.662-11.602a.875.875 0 0 1 .875-.875h35a.875.875 0 0 1 .875.875c0 4.007-1.82 11.602-8.663 11.602ZM21 37.468a.875.875 0 0 1-.875-.875v-9.748a.875.875 0 0 1 1.75 0v9.748a.875.875 0 0 1-.875.875Z" fill="#fff"/><path d="M30.748 37.468h-17.5a.875.875 0 1 1 0-1.75h17.5a.875.875 0 0 1 0 1.75Z" fill="#fff"/></svg>