<svg width="30" height="29" viewBox="0 0 30 29" fill="none" xmlns="http://www.w3.org/2000/svg">
<path d="M14.7864 14.2245C14.0212 14.2245 13.2732 13.9976 12.637 13.5724C12.0007 13.1473 11.5049 12.5431 11.212 11.8362C10.9192 11.1292 10.8426 10.3513 10.9919 9.60087C11.1412 8.85039 11.5096 8.16103 12.0507 7.61997C12.5918 7.07891 13.2811 6.71044 14.0316 6.56116C14.7821 6.41188 15.56 6.48849 16.2669 6.78131C16.9738 7.07414 17.5781 7.57001 18.0032 8.20624C18.4283 8.84246 18.6552 9.59046 18.6552 10.3556C18.6552 11.3817 18.2476 12.3658 17.522 13.0913C16.7965 13.8169 15.8124 14.2245 14.7864 14.2245ZM14.7864 7.67357C14.2559 7.67357 13.7374 7.83087 13.2963 8.12558C12.8552 8.42029 12.5115 8.83917 12.3085 9.32926C12.1055 9.81934 12.0523 10.3586 12.1558 10.8789C12.2593 11.3992 12.5148 11.8771 12.8899 12.2521C13.265 12.6272 13.7428 12.8827 14.2631 12.9862C14.7834 13.0897 15.3227 13.0365 15.8127 12.8335C16.3028 12.6305 16.7217 12.2868 17.0164 11.8457C17.3111 11.4047 17.4684 10.8861 17.4684 10.3556C17.4684 9.64431 17.1859 8.96212 16.6829 8.45913C16.1799 7.95615 15.4977 7.67357 14.7864 7.67357Z" fill="#F38281"/>
<path d="M21.4797 12.2783H21.3847C21.239 12.2416 21.1121 12.1521 21.0288 12.027C20.9454 11.902 20.9116 11.7504 20.9338 11.6018V11.4119C20.9377 11.3289 20.9377 11.2458 20.9338 11.1627C20.9455 11.0404 20.9455 10.9172 20.9338 10.7948C20.9338 10.4863 20.9338 10.332 20.9338 10.332C20.9338 8.73623 20.2999 7.20582 19.1715 6.07744C18.0431 4.94907 16.5127 4.31515 14.9169 4.31515C13.3212 4.31515 11.7908 4.94907 10.6624 6.07744C9.534 7.20582 8.90009 8.73623 8.90009 10.332C8.90009 10.332 8.90009 10.4863 8.90009 10.7118C8.93316 10.8694 8.98913 11.0213 9.06623 11.1627V11.4594V11.6493C9.07792 11.7272 9.07415 11.8067 9.05512 11.8831C9.0361 11.9596 9.00221 12.0316 8.95537 12.0949C8.90854 12.1583 8.84968 12.2118 8.78216 12.2524C8.71464 12.2931 8.63978 12.32 8.56186 12.3317C8.48394 12.3434 8.40447 12.3396 8.32801 12.3206C8.25154 12.3016 8.17957 12.2677 8.11621 12.2208C8.05284 12.174 7.99932 12.1151 7.95871 12.0476C7.91809 11.9801 7.89116 11.9052 7.87948 11.8273V11.4001C7.85886 11.2068 7.85886 11.0119 7.87948 10.8186V10.4507C7.87948 8.54016 8.63843 6.70789 9.98936 5.35696C11.3403 4.00602 13.1726 3.24707 15.0831 3.24707C16.9936 3.24707 18.8259 4.00602 20.1768 5.35696C21.5277 6.70789 22.2867 8.54016 22.2867 10.4507C22.2867 10.4507 22.2867 10.6524 22.2867 10.8898C22.2845 11.085 22.2647 11.2796 22.2273 11.4713L22.1205 11.7798C22.0998 11.9301 22.0212 12.0663 21.9015 12.1594C21.7818 12.2525 21.6304 12.2952 21.4797 12.2783Z" fill="#F38281"/>
<path d="M15 26.2937C14.9222 26.2947 14.845 26.2793 14.7735 26.2487C14.7019 26.218 14.6376 26.1727 14.5846 26.1157C8.29483 19.8259 7.87946 10.7591 7.79639 10.3793C7.79321 10.3014 7.80543 10.2236 7.83235 10.1504C7.85926 10.0772 7.90035 10.01 7.95326 9.95266C8.00617 9.89534 8.06986 9.84902 8.14069 9.81634C8.21151 9.78366 8.28809 9.76527 8.36603 9.76221C8.44397 9.75903 8.52177 9.77125 8.59499 9.79817C8.6682 9.82508 8.73538 9.86617 8.7927 9.91908C8.85002 9.97199 8.89634 10.0357 8.92902 10.1065C8.9617 10.1773 8.98009 10.2539 8.98315 10.3319C8.98315 10.4149 9.46972 19.3275 15.4154 25.285C15.4721 25.3382 15.5174 25.4026 15.5483 25.474C15.5792 25.5455 15.5952 25.6225 15.5952 25.7003C15.5952 25.7782 15.5792 25.8552 15.5483 25.9266C15.5174 25.9981 15.4721 26.0624 15.4154 26.1157C15.3624 26.1727 15.298 26.218 15.2265 26.2487C15.155 26.2793 15.0778 26.2947 15 26.2937Z" fill="#F38281"/>
<path d="M15 26.2941C14.9222 26.295 14.845 26.2797 14.7735 26.249C14.7019 26.2184 14.6376 26.1731 14.5846 26.1161C14.5279 26.0628 14.4826 25.9984 14.4517 25.927C14.4208 25.8556 14.4048 25.7785 14.4048 25.7007C14.4048 25.6228 14.4208 25.5458 14.4517 25.4744C14.4826 25.4029 14.5279 25.3386 14.5846 25.2853C20.5184 19.3516 21.005 10.4153 21.0168 10.3322C21.0127 10.2522 21.0262 10.1722 21.0564 10.0979C21.0866 10.0236 21.1328 9.95696 21.1917 9.90259C21.2506 9.84821 21.3208 9.80747 21.3972 9.78327C21.4737 9.75908 21.5545 9.75201 21.634 9.76257C21.7903 9.77175 21.937 9.84117 22.0432 9.95625C22.1495 10.0713 22.2069 10.2231 22.2036 10.3797C22.2036 10.7594 21.7052 19.8737 15.4154 26.1161C15.3624 26.1731 15.298 26.2184 15.2265 26.249C15.155 26.2797 15.0778 26.295 15 26.2941Z" fill="#F38281"/>
</svg>
