<svg width="270" height="100" fill="none" xmlns="http://www.w3.org/2000/svg"><path d="M29.102 73.476V51.305l-7.95 16.143h-4.678L8.523 51.305v22.17H0V36.263h9.25l9.563 19.446 9.614-19.446h9.198v37.214h-8.523ZM56.57 74c-3.117 0-5.768-.664-7.95-1.992-2.148-1.328-3.794-3.075-4.937-5.241-1.144-2.166-1.715-4.508-1.715-7.023 0-2.551.571-4.91 1.715-7.076 1.143-2.167 2.806-3.914 4.989-5.242 2.182-1.328 4.815-1.992 7.899-1.992 3.083 0 5.716.664 7.9 1.992 2.182 1.328 3.845 3.075 4.988 5.242 1.143 2.166 1.715 4.525 1.715 7.075 0 2.516-.572 4.857-1.715 7.024-1.143 2.166-2.806 3.913-4.989 5.241C62.287 73.336 59.654 74 56.57 74Zm-6.08-14.257c0 2.132.572 3.862 1.716 5.19 1.177 1.327 2.633 1.991 4.365 1.991 1.698 0 3.118-.664 4.261-1.992 1.178-1.327 1.767-3.057 1.767-5.189 0-2.131-.589-3.86-1.767-5.189-1.143-1.327-2.563-1.991-4.261-1.991-1.732 0-3.188.664-4.365 1.991-1.144 1.328-1.715 3.058-1.715 5.19Zm41.126 13.995c-2.425 0-4.712-.454-6.86-1.363a18.595 18.595 0 0 1-5.665-3.93c-1.628-1.713-2.91-3.722-3.845-6.028-.9-2.342-1.351-4.945-1.351-7.81 0-2.586.45-4.997 1.35-7.233a18.874 18.874 0 0 1 3.898-5.923 18.262 18.262 0 0 1 5.873-3.983C87.268 36.489 89.693 36 92.29 36c3.396 0 6.375.734 8.939 2.201 2.598 1.468 4.539 3.442 5.821 5.923l-6.341 4.822a9.306 9.306 0 0 0-3.637-3.878c-1.594-.944-3.292-1.416-5.093-1.416-1.871 0-3.517.507-4.937 1.52-1.42.979-2.53 2.324-3.326 4.036-.797 1.712-1.196 3.617-1.196 5.713 0 2.132.416 4.054 1.248 5.766.831 1.677 1.974 3.005 3.43 3.983 1.49.944 3.204 1.415 5.145 1.415 3.325 0 6.322-1.537 8.99-4.612v-1.205h-7.172V54.03h14.24v19.446h-7.068v-3.67c-2.806 2.622-6.046 3.932-9.718 3.932Zm34.737.262c-3.118 0-5.769-.664-7.951-1.992-2.148-1.328-3.794-3.075-4.937-5.241-1.144-2.166-1.715-4.508-1.715-7.023 0-2.551.571-4.91 1.715-7.076 1.143-2.167 2.806-3.914 4.989-5.242 2.182-1.328 4.815-1.992 7.899-1.992 3.083 0 5.716.664 7.899 1.992 2.183 1.328 3.846 3.075 4.989 5.242 1.143 2.166 1.715 4.525 1.715 7.075 0 2.516-.572 4.857-1.715 7.024-1.143 2.166-2.806 3.913-4.989 5.241-2.183 1.328-4.816 1.992-7.899 1.992Zm-6.081-14.257c0 2.132.572 3.862 1.715 5.19 1.178 1.327 2.633 1.991 4.366 1.991 1.697 0 3.118-.664 4.261-1.992 1.178-1.327 1.767-3.057 1.767-5.189 0-2.131-.589-3.86-1.767-5.189-1.143-1.327-2.564-1.991-4.261-1.991-1.733 0-3.188.664-4.366 1.991-1.143 1.328-1.715 3.058-1.715 5.19Z" fill="#C6CBCD"/></svg>